<?xml version="1.0" encoding="iso-8859-1"?>
<!-- Uploaded to: SVG Repo, www.svgrepo.com, Generator: SVG Repo Mixer Tools -->
<svg height="800px" width="800px" version="1.1" id="Layer_1" xmlns="http://www.w3.org/2000/svg" xmlns:xlink="http://www.w3.org/1999/xlink" 
	 viewBox="0 0 512 512" xml:space="preserve">
<path style="fill:#EEE5DD;" d="M450.467,149.024C427.429,63.195,349.101,0,256,0l0,0C162.899,0,84.571,63.195,61.533,149.024
	l-0.165,0.603c-4.379,16.503-6.716,33.839-6.716,51.722V471.73c0,22.24,18.029,40.27,40.27,40.27s40.27-18.029,40.27-40.27
	c0,22.24,18.029,40.27,40.27,40.27s40.27-18.029,40.27-40.27c0,22.24,18.029,40.27,40.27,40.27s40.27-18.029,40.27-40.27
	c0,22.24,18.029,40.27,40.27,40.27c22.24,0,40.27-18.029,40.27-40.27c0,22.24,18.029,40.27,40.27,40.27
	c22.24,0,40.27-18.029,40.27-40.27V201.348C457.348,183.249,454.947,165.711,450.467,149.024z"/>
<g>
	<circle style="fill:#20272E;" cx="159.942" cy="287.986" r="17.973"/>
	<circle style="fill:#20272E;" cx="352.058" cy="287.986" r="17.973"/>
	<path style="fill:#20272E;" d="M192.719,322.527c0,17.602,7.192,33.522,18.792,44.993c9.719-8.495,26.017-14.07,44.489-14.07
		s34.769,5.574,44.489,14.07c11.599-11.471,18.792-27.389,18.792-44.993H192.719z"/>
</g>
<path style="fill:#FF738D;" d="M300.489,367.52c-9.719-8.495-26.017-14.07-44.489-14.07s-34.769,5.574-44.489,14.07
	c11.431,11.304,27.142,18.29,44.489,18.29S289.059,378.824,300.489,367.52z"/>
<path style="opacity:0.3;fill:#20272E;enable-background:new    ;" d="M450.467,149.024C427.429,63.195,349.101,0,256,0l0,0v512
	c22.24,0,40.27-18.029,40.27-40.27c0,22.24,18.029,40.27,40.27,40.27c22.24,0,40.27-18.029,40.27-40.27
	c0,22.24,18.029,40.27,40.27,40.27c22.24,0,40.27-18.029,40.27-40.27V201.348C457.348,183.249,454.947,165.711,450.467,149.024z"/>
</svg>